<?xml version="1.0" encoding="utf-8"?>
<!-- Generator: Adobe Illustrator 19.0.0, SVG Export Plug-In . SVG Version: 6.00 Build 0)  -->
<!DOCTYPE svg PUBLIC "-//W3C//DTD SVG 1.1//EN" "http://www.w3.org/Graphics/SVG/1.1/DTD/svg11.dtd">
<svg version="1.1" id="Layer_1" xmlns="http://www.w3.org/2000/svg" xmlns:xlink="http://www.w3.org/1999/xlink" x="0px" y="0px"
	 viewBox="0 0 612 792" style="enable-background:new 0 0 612 792;" xml:space="preserve">
<style type="text/css">
	.st0{fill:#FFFFFF;}
</style>
<g id="XMLID_81_">
	<path id="XMLID_29_" class="st0" d="M114.8,368.9v37.2h-10.3v-53.9h13.5l24,33.6v-33.6h10v53.9h-10L114.8,368.9z"/>
	<path id="XMLID_31_" class="st0" d="M171.4,396h30.3v9.9H160v-53.9h39.2v9.9h-27.8v12.1H196v10.5h-24.5V396z"/>
	<path id="XMLID_33_" class="st0" d="M261.4,406h-11.7l-9.1-36.6h-0.2l-9,36.6h-12l-14.2-53.7h11.8l7.6,36.7l1.1-0.2l9.3-36.6h11.1
		l9.2,37l1.1,0.1l7.9-37.1h11.6L261.4,406z"/>
	<path id="XMLID_35_" class="st0" d="M281.1,352.3h24.2c13.5,0,18.6,8.5,18.6,17.2c0,8.7-5.1,17.2-18.6,17.2h-12.4V406h-11.8V352.3z
		 M292.9,377.6h9.2c5.4,0,10.4-1.2,10.4-8.1c0-6.8-5-8.1-10.4-8.1h-9.2V377.6z"/>
	<path id="XMLID_38_" class="st0" d="M355.2,406.7c-15.3,0-27.8-12.4-27.8-27.8c0-15.4,12.4-27.8,27.8-27.8
		c15.3,0,27.8,12.4,27.8,27.8C383,394.3,370.4,406.7,355.2,406.7z M338.8,378.9c0,9,7.4,16.4,16.4,16.4c9,0,16.3-7.4,16.3-16.4
		s-7.3-16.5-16.3-16.5C346.2,362.5,338.8,370,338.8,378.9z"/>
	<path id="XMLID_41_" class="st0" d="M420.5,386.2l15,19.9h-14.4l-13.5-19.3h-5.8v19.3h-11.9v-53.8h24.2c13.5,0,18.7,8.5,18.7,17.2
		c0,7.3-3.8,14.7-12.8,16.6H420.5z M401.7,361.5v16.2h9.2c5.6,0,10.3-1.3,10.3-8.1c0-7-4.7-8.1-10.3-8.1H401.7z"/>
	<path id="XMLID_44_" class="st0" d="M457.8,362.2h-17.1v-9.9h45.8v9.9h-16.9V406h-11.8V362.2z"/>
</g>
<g id="XMLID_79_">
	<path id="XMLID_3_" class="st0" d="M163.5,443.4h-4.6v-29.1h4.6v12.5h5.2v-12.5h4.7v29.1h-4.7v-12.5h-5.2V443.4z"/>
	<path id="XMLID_5_" class="st0" d="M184.6,421.3c0-4.7,2.5-7.3,6.9-7.3c4.5,0,6.9,2.7,6.9,7.3v15.1c0,4.7-2.5,7.3-6.9,7.3
		c-4.5,0-6.9-2.7-6.9-7.3V421.3z M189.1,436.7c0,2.1,0.9,2.9,2.4,2.9c1.5,0,2.4-0.8,2.4-2.9V421c0-2.1-0.9-2.9-2.4-2.9
		c-1.5,0-2.4,0.8-2.4,2.9V436.7z"/>
	<path id="XMLID_8_" class="st0" d="M209.7,414.3h4.6v24.9h7.5v4.2h-12.1V414.3z"/>
	<path id="XMLID_10_" class="st0" d="M232.1,414.3h7.2c4.6,0,6.8,2.5,6.8,7.2v14.7c0,4.7-2.2,7.2-6.8,7.2h-7.2V414.3z M236.7,418.4
		v20.8h2.6c1.5,0,2.3-0.7,2.3-2.8v-15.1c0-2.1-0.9-2.8-2.3-2.8H236.7z"/>
	<path id="XMLID_13_" class="st0" d="M257.4,414.3h4.6v29.1h-4.6V414.3z"/>
	<path id="XMLID_15_" class="st0" d="M277.6,422.3v21.1h-4.1v-29.1h5.7l4.7,17.4v-17.4h4.1v29.1h-4.7L277.6,422.3z"/>
	<path id="XMLID_17_" class="st0" d="M306.5,427.2h6.4v9.2c0,4.7-2.3,7.3-6.8,7.3c-4.5,0-6.8-2.7-6.8-7.3v-15.1
		c0-4.7,2.3-7.3,6.8-7.3c4.5,0,6.8,2.7,6.8,7.3v2.8h-4.3V421c0-2.1-0.9-2.9-2.4-2.9s-2.4,0.8-2.4,2.9v15.7c0,2.1,0.9,2.8,2.4,2.8
		s2.4-0.7,2.4-2.8v-5.4h-2.1V427.2z"/>
	<path id="XMLID_19_" class="st0" d="M330.3,414c4.4,0,6.7,2.7,6.7,7.3v0.9h-4.3V421c0-2.1-0.8-2.9-2.3-2.9c-1.5,0-2.3,0.8-2.3,2.9
		c0,6,8.9,7.1,8.9,15.4c0,4.7-2.3,7.3-6.8,7.3s-6.8-2.7-6.8-7.3v-1.8h4.3v2.1c0,2.1,0.9,2.8,2.4,2.8c1.5,0,2.4-0.7,2.4-2.8
		c0-6-8.9-7.1-8.9-15.4C323.5,416.6,325.8,414,330.3,414z"/>
	<path id="XMLID_21_" class="st0" d="M347.8,443.4V439h4.4v3.9l-2,4.6h-1.9l1.2-4.2H347.8z"/>
	<path id="XMLID_23_" class="st0" d="M363.8,414.3h4.6v24.9h7.5v4.2h-12.1V414.3z"/>
	<path id="XMLID_25_" class="st0" d="M386.2,414.3h4.6v24.9h7.5v4.2h-12.1V414.3z"/>
	<path id="XMLID_27_" class="st0" d="M421.9,432.5v3.9c0,4.7-2.3,7.3-6.8,7.3s-6.8-2.7-6.8-7.3v-15.1c0-4.7,2.3-7.3,6.8-7.3
		s6.8,2.7,6.8,7.3v2.8h-4.3V421c0-2.1-0.9-2.9-2.4-2.9s-2.4,0.8-2.4,2.9v15.7c0,2.1,0.9,2.8,2.4,2.8s2.4-0.7,2.4-2.8v-4.2H421.9z"/>
</g>
</svg>
